<mxfile host="app.diagrams.net" modified="2020-11-18T09:01:07.938Z" agent="5.0 (X11; Linux x86_64) AppleWebKit/537.36 (KHTML, like Gecko) Chrome/86.0.4240.198 Safari/537.36" etag="UQ6YTK1Oa8P8JD1xUQPh" version="13.9.9" type="github">
  <diagram name="Page-1" id="7e0a89b8-554c-2b80-1dc8-d5c74ca68de4">
    <mxGraphModel dx="989" dy="779" grid="1" gridSize="10" guides="1" tooltips="1" connect="1" arrows="1" fold="1" page="1" pageScale="1" pageWidth="1100" pageHeight="850" background="#ffffff" math="0" shadow="0">
      <root>
        <mxCell id="0" />
        <mxCell id="1" parent="0" />
        <mxCell id="cGzED9iwPoAN8l90j6dS-2" value="" style="pointerEvents=1;verticalLabelPosition=bottom;shadow=0;dashed=0;align=center;html=1;verticalAlign=top;shape=mxgraph.electrical.electro-mechanical.2-way_switch;" vertex="1" parent="1">
          <mxGeometry x="400" y="140" width="75" height="26" as="geometry" />
        </mxCell>
        <mxCell id="cGzED9iwPoAN8l90j6dS-4" value="" style="pointerEvents=1;verticalLabelPosition=bottom;shadow=0;dashed=0;align=center;html=1;verticalAlign=top;shape=mxgraph.electrical.signal_sources.ac_source;" vertex="1" parent="1">
          <mxGeometry x="250" y="130" width="60" height="60" as="geometry" />
        </mxCell>
        <mxCell id="cGzED9iwPoAN8l90j6dS-6" value="" style="endArrow=none;html=1;exitX=0;exitY=0.5;exitDx=0;exitDy=0;exitPerimeter=0;" edge="1" parent="1" source="cGzED9iwPoAN8l90j6dS-4" target="cGzED9iwPoAN8l90j6dS-7">
          <mxGeometry width="50" height="50" relative="1" as="geometry">
            <mxPoint x="450" y="420" as="sourcePoint" />
            <mxPoint x="180" y="60" as="targetPoint" />
            <Array as="points">
              <mxPoint x="180" y="160" />
              <mxPoint x="180" y="70" />
            </Array>
          </mxGeometry>
        </mxCell>
        <mxCell id="cGzED9iwPoAN8l90j6dS-7" value="M" style="dashed=0;outlineConnect=0;align=center;html=1;shape=mxgraph.pid.engines.electric_motor_(ac);fontSize=45;" vertex="1" parent="1">
          <mxGeometry x="720" y="20" width="100" height="100" as="geometry" />
        </mxCell>
        <mxCell id="cGzED9iwPoAN8l90j6dS-8" value="" style="endArrow=none;html=1;exitX=1;exitY=0.5;exitDx=0;exitDy=0;exitPerimeter=0;entryX=0;entryY=0.885;entryDx=0;entryDy=0;entryPerimeter=0;" edge="1" parent="1" source="cGzED9iwPoAN8l90j6dS-4" target="cGzED9iwPoAN8l90j6dS-2">
          <mxGeometry width="50" height="50" relative="1" as="geometry">
            <mxPoint x="450" y="420" as="sourcePoint" />
            <mxPoint x="500" y="370" as="targetPoint" />
          </mxGeometry>
        </mxCell>
        <mxCell id="cGzED9iwPoAN8l90j6dS-9" value="" style="endArrow=none;html=1;exitX=1;exitY=0.115;exitDx=0;exitDy=0;exitPerimeter=0;entryX=0.5;entryY=1;entryDx=0;entryDy=0;entryPerimeter=0;" edge="1" parent="1" source="cGzED9iwPoAN8l90j6dS-2" target="cGzED9iwPoAN8l90j6dS-7">
          <mxGeometry width="50" height="50" relative="1" as="geometry">
            <mxPoint x="475" y="140" as="sourcePoint" />
            <mxPoint x="750" y="140" as="targetPoint" />
            <Array as="points">
              <mxPoint x="770" y="143" />
            </Array>
          </mxGeometry>
        </mxCell>
        <mxCell id="cGzED9iwPoAN8l90j6dS-11" value="" style="endArrow=none;html=1;exitX=1;exitY=0.885;exitDx=0;exitDy=0;exitPerimeter=0;entryX=0.5;entryY=0;entryDx=0;entryDy=0;entryPerimeter=0;" edge="1" parent="1" source="cGzED9iwPoAN8l90j6dS-2" target="cGzED9iwPoAN8l90j6dS-7">
          <mxGeometry width="50" height="50" relative="1" as="geometry">
            <mxPoint x="450" y="270" as="sourcePoint" />
            <mxPoint x="500" y="220" as="targetPoint" />
            <Array as="points">
              <mxPoint x="870" y="163" />
              <mxPoint x="870" y="20" />
              <mxPoint x="870" y="10" />
              <mxPoint x="770" y="10" />
            </Array>
          </mxGeometry>
        </mxCell>
        <mxCell id="cGzED9iwPoAN8l90j6dS-12" value="" style="pointerEvents=1;fillColor=strokeColor;verticalLabelPosition=bottom;shadow=0;dashed=0;align=center;html=1;verticalAlign=top;shape=mxgraph.electrical.diodes.transorb_2;" vertex="1" parent="1">
          <mxGeometry x="417.5" y="180" width="40" height="20" as="geometry" />
        </mxCell>
        <mxCell id="cGzED9iwPoAN8l90j6dS-13" value="" style="endArrow=none;html=1;entryX=0.76;entryY=0.846;entryDx=0;entryDy=0;entryPerimeter=0;exitX=1;exitY=0.5;exitDx=0;exitDy=0;exitPerimeter=0;" edge="1" parent="1" source="cGzED9iwPoAN8l90j6dS-12" target="cGzED9iwPoAN8l90j6dS-2">
          <mxGeometry width="50" height="50" relative="1" as="geometry">
            <mxPoint x="457" y="210" as="sourcePoint" />
            <mxPoint x="480" y="220" as="targetPoint" />
          </mxGeometry>
        </mxCell>
        <mxCell id="cGzED9iwPoAN8l90j6dS-14" value="" style="endArrow=none;html=1;exitX=0;exitY=0.5;exitDx=0;exitDy=0;exitPerimeter=0;entryX=0.24;entryY=1;entryDx=0;entryDy=0;entryPerimeter=0;" edge="1" parent="1" source="cGzED9iwPoAN8l90j6dS-12" target="cGzED9iwPoAN8l90j6dS-2">
          <mxGeometry width="50" height="50" relative="1" as="geometry">
            <mxPoint x="450" y="270" as="sourcePoint" />
            <mxPoint x="500" y="220" as="targetPoint" />
          </mxGeometry>
        </mxCell>
        <mxCell id="cGzED9iwPoAN8l90j6dS-15" value="" style="pointerEvents=1;fillColor=strokeColor;verticalLabelPosition=bottom;shadow=0;dashed=0;align=center;html=1;verticalAlign=top;shape=mxgraph.electrical.diodes.transorb_2;" vertex="1" parent="1">
          <mxGeometry x="417.5" y="100" width="40" height="20" as="geometry" />
        </mxCell>
        <mxCell id="cGzED9iwPoAN8l90j6dS-16" value="" style="endArrow=none;html=1;entryX=0;entryY=0.5;entryDx=0;entryDy=0;entryPerimeter=0;exitX=0.267;exitY=1;exitDx=0;exitDy=0;exitPerimeter=0;" edge="1" parent="1" source="cGzED9iwPoAN8l90j6dS-2" target="cGzED9iwPoAN8l90j6dS-15">
          <mxGeometry width="50" height="50" relative="1" as="geometry">
            <mxPoint x="450" y="270" as="sourcePoint" />
            <mxPoint x="500" y="220" as="targetPoint" />
          </mxGeometry>
        </mxCell>
        <mxCell id="cGzED9iwPoAN8l90j6dS-17" value="" style="endArrow=none;html=1;entryX=1;entryY=0.5;entryDx=0;entryDy=0;entryPerimeter=0;exitX=0.773;exitY=0.154;exitDx=0;exitDy=0;exitPerimeter=0;" edge="1" parent="1" source="cGzED9iwPoAN8l90j6dS-2" target="cGzED9iwPoAN8l90j6dS-15">
          <mxGeometry width="50" height="50" relative="1" as="geometry">
            <mxPoint x="450" y="270" as="sourcePoint" />
            <mxPoint x="500" y="220" as="targetPoint" />
          </mxGeometry>
        </mxCell>
        <mxCell id="cGzED9iwPoAN8l90j6dS-19" value="" style="rounded=0;whiteSpace=wrap;html=1;" vertex="1" parent="1">
          <mxGeometry x="377.5" y="200" width="120" height="60" as="geometry" />
        </mxCell>
        <mxCell id="cGzED9iwPoAN8l90j6dS-20" value="carte relais" style="text;html=1;strokeColor=none;fillColor=none;align=center;verticalAlign=middle;whiteSpace=wrap;rounded=0;" vertex="1" parent="1">
          <mxGeometry x="400" y="220" width="70" height="20" as="geometry" />
        </mxCell>
        <mxCell id="cGzED9iwPoAN8l90j6dS-21" value="" style="rounded=0;whiteSpace=wrap;html=1;" vertex="1" parent="1">
          <mxGeometry x="337.5" y="365" width="152.5" height="60" as="geometry" />
        </mxCell>
        <mxCell id="cGzED9iwPoAN8l90j6dS-22" value="" style="shape=image;html=1;verticalAlign=top;verticalLabelPosition=bottom;labelBackgroundColor=#ffffff;imageAspect=0;aspect=fixed;image=https://cdn4.iconfinder.com/data/icons/logos-and-brands-1/512/272_Raspberry_Pi_logo-128.png" vertex="1" parent="1">
          <mxGeometry x="337.5" y="370" width="28" height="28" as="geometry" />
        </mxCell>
        <mxCell id="cGzED9iwPoAN8l90j6dS-27" value="" style="endArrow=none;html=1;entryX=0.607;entryY=1;entryDx=0;entryDy=0;entryPerimeter=0;exitX=0.938;exitY=1.033;exitDx=0;exitDy=0;exitPerimeter=0;" edge="1" parent="1" source="cGzED9iwPoAN8l90j6dS-19" target="cGzED9iwPoAN8l90j6dS-21">
          <mxGeometry width="50" height="50" relative="1" as="geometry">
            <mxPoint x="630" y="420" as="sourcePoint" />
            <mxPoint x="500" y="210" as="targetPoint" />
            <Array as="points">
              <mxPoint x="530" y="262" />
              <mxPoint x="530" y="470" />
              <mxPoint x="430" y="470" />
            </Array>
          </mxGeometry>
        </mxCell>
        <mxCell id="cGzED9iwPoAN8l90j6dS-28" value="" style="endArrow=none;html=1;exitX=0.5;exitY=1;exitDx=0;exitDy=0;entryX=0.354;entryY=1.05;entryDx=0;entryDy=0;entryPerimeter=0;" edge="1" parent="1" source="cGzED9iwPoAN8l90j6dS-21" target="cGzED9iwPoAN8l90j6dS-19">
          <mxGeometry width="50" height="50" relative="1" as="geometry">
            <mxPoint x="450" y="260" as="sourcePoint" />
            <mxPoint x="500" y="210" as="targetPoint" />
            <Array as="points">
              <mxPoint x="414" y="470" />
              <mxPoint x="290" y="470" />
              <mxPoint x="290" y="280" />
              <mxPoint x="420" y="280" />
            </Array>
          </mxGeometry>
        </mxCell>
        <mxCell id="cGzED9iwPoAN8l90j6dS-30" value="" style="endArrow=none;html=1;exitX=0.816;exitY=0.983;exitDx=0;exitDy=0;exitPerimeter=0;entryX=0.75;entryY=1;entryDx=0;entryDy=0;fillColor=#f8cecc;strokeColor=#b85450;" edge="1" parent="1" source="cGzED9iwPoAN8l90j6dS-21" target="cGzED9iwPoAN8l90j6dS-19">
          <mxGeometry width="50" height="50" relative="1" as="geometry">
            <mxPoint x="450" y="260" as="sourcePoint" />
            <mxPoint x="500" y="210" as="targetPoint" />
            <Array as="points">
              <mxPoint x="462" y="450" />
              <mxPoint x="510" y="450" />
              <mxPoint x="510" y="280" />
              <mxPoint x="468" y="280" />
            </Array>
          </mxGeometry>
        </mxCell>
        <mxCell id="cGzED9iwPoAN8l90j6dS-31" value="masse" style="text;html=1;strokeColor=none;fillColor=none;align=center;verticalAlign=middle;whiteSpace=wrap;rounded=0;" vertex="1" parent="1">
          <mxGeometry x="457.5" y="470" width="40" height="20" as="geometry" />
        </mxCell>
        <mxCell id="cGzED9iwPoAN8l90j6dS-32" value="dc 3.3v" style="text;html=1;strokeColor=#b85450;align=center;verticalAlign=middle;whiteSpace=wrap;rounded=0;" vertex="1" parent="1">
          <mxGeometry x="460" y="300" width="50" height="20" as="geometry" />
        </mxCell>
        <mxCell id="cGzED9iwPoAN8l90j6dS-33" value="GPIO" style="text;html=1;strokeColor=none;fillColor=none;align=center;verticalAlign=middle;whiteSpace=wrap;rounded=0;" vertex="1" parent="1">
          <mxGeometry x="326" y="450" width="40" height="20" as="geometry" />
        </mxCell>
        <mxCell id="cGzED9iwPoAN8l90j6dS-34" value="raspberry pi" style="text;html=1;strokeColor=none;fillColor=none;align=center;verticalAlign=middle;whiteSpace=wrap;rounded=0;" vertex="1" parent="1">
          <mxGeometry x="377.5" y="390" width="82.5" height="20" as="geometry" />
        </mxCell>
      </root>
    </mxGraphModel>
  </diagram>
</mxfile>
